<svg width="48" height="82" viewBox="0 0 48 82" fill="none" xmlns="http://www.w3.org/2000/svg">
<mask id="path-1-inside-1_293_9" fill="white">
<path d="M1 66L1 0H48L48 66H1Z"/>
</mask>
<path d="M1 66L1 0H48L48 66H1Z" fill="#8082AD"/>
<path d="M48 0H49.5C49.5 -0.82843 48.8284 -1.5 48 -1.5V0ZM48 66V67.5C48.8284 67.5 49.5 66.8284 49.5 66H48ZM1 1.5H48V-1.5H1L1 1.5ZM46.5 0L46.5 66H49.5L49.5 0H46.5ZM48 64.5H1L1 67.5H48V64.5Z" fill="#02075D" mask="url(#path-1-inside-1_293_9)"/>
<path d="M33 14.5652L1 1V65.6957L33 81V14.5652Z" fill="white" stroke="#02075D"/>
</svg>
