<svg width="68" height="95" viewBox="0 0 68 95" fill="none" xmlns="http://www.w3.org/2000/svg">
<rect x="0.75" y="94.25" width="93.5" height="66.5" transform="rotate(-90 0.75 94.25)" stroke="#02075D" stroke-opacity="0.33" stroke-width="1.5" stroke-linejoin="round"/>
<path d="M29.6753 43.084C29.1153 43.084 28.6113 42.988 28.1633 42.796C27.7153 42.596 27.3633 42.316 27.1073 41.956C26.8513 41.596 26.7233 41.176 26.7233 40.696H28.1873C28.2193 41.072 28.3593 41.38 28.6073 41.62C28.8633 41.86 29.2193 41.98 29.6753 41.98C30.1473 41.98 30.5153 41.864 30.7793 41.632C31.0433 41.392 31.1753 41.084 31.1753 40.708C31.1753 40.428 31.0913 40.2 30.9233 40.024C30.7633 39.848 30.5593 39.712 30.3113 39.616C30.0713 39.52 29.7353 39.416 29.3033 39.304C28.7593 39.16 28.3153 39.016 27.9713 38.872C27.6353 38.72 27.3473 38.488 27.1073 38.176C26.8673 37.864 26.7473 37.448 26.7473 36.928C26.7473 36.448 26.8673 36.028 27.1073 35.668C27.3473 35.308 27.6833 35.032 28.1153 34.84C28.5473 34.648 29.0473 34.552 29.6153 34.552C30.4233 34.552 31.0833 34.756 31.5953 35.164C32.1153 35.564 32.4033 36.116 32.4593 36.82H30.9473C30.9233 36.492 30.7793 36.22 30.5153 36.004C30.2593 35.78 29.9113 35.668 29.4713 35.668C29.0713 35.668 28.7473 35.772 28.4993 35.98C28.2593 36.18 28.1393 36.48 28.1393 36.88C28.1393 37.136 28.2153 37.348 28.3673 37.516C28.5273 37.676 28.7273 37.804 28.9673 37.9C29.2073 37.996 29.5353 38.1 29.9513 38.212C30.5033 38.364 30.9513 38.516 31.2953 38.668C31.6473 38.82 31.9433 39.056 32.1833 39.376C32.4313 39.688 32.5553 40.108 32.5553 40.636C32.5553 41.06 32.4393 41.46 32.2073 41.836C31.9833 42.212 31.6513 42.516 31.2113 42.748C30.7793 42.972 30.2673 43.084 29.6753 43.084ZM34.8655 35.512C34.6175 35.512 34.4095 35.428 34.2415 35.26C34.0735 35.092 33.9895 34.884 33.9895 34.636C33.9895 34.388 34.0735 34.18 34.2415 34.012C34.4095 33.844 34.6175 33.76 34.8655 33.76C35.1055 33.76 35.3095 33.844 35.4775 34.012C35.6455 34.18 35.7295 34.388 35.7295 34.636C35.7295 34.884 35.6455 35.092 35.4775 35.26C35.3095 35.428 35.1055 35.512 34.8655 35.512ZM35.5375 36.388V43H34.1695V36.388H35.5375ZM36.8776 39.664C36.8776 39 37.0136 38.412 37.2856 37.9C37.5656 37.388 37.9416 36.992 38.4136 36.712C38.8936 36.424 39.4256 36.28 40.0096 36.28C40.4416 36.28 40.8656 36.376 41.2816 36.568C41.7056 36.752 42.0416 37 42.2896 37.312V34.12H43.6696V43H42.2896V42.004C42.0656 42.324 41.7536 42.588 41.3536 42.796C40.9616 43.004 40.5096 43.108 39.9976 43.108C39.4216 43.108 38.8936 42.964 38.4136 42.676C37.9416 42.38 37.5656 41.972 37.2856 41.452C37.0136 40.924 36.8776 40.328 36.8776 39.664ZM42.2896 39.688C42.2896 39.232 42.1936 38.836 42.0016 38.5C41.8176 38.164 41.5736 37.908 41.2696 37.732C40.9656 37.556 40.6376 37.468 40.2856 37.468C39.9336 37.468 39.6056 37.556 39.3016 37.732C38.9976 37.9 38.7496 38.152 38.5576 38.488C38.3736 38.816 38.2816 39.208 38.2816 39.664C38.2816 40.12 38.3736 40.52 38.5576 40.864C38.7496 41.208 38.9976 41.472 39.3016 41.656C39.6136 41.832 39.9416 41.92 40.2856 41.92C40.6376 41.92 40.9656 41.832 41.2696 41.656C41.5736 41.48 41.8176 41.224 42.0016 40.888C42.1936 40.544 42.2896 40.144 42.2896 39.688ZM51.5264 39.508C51.5264 39.74 51.5104 39.956 51.4784 40.156H46.4144C46.4544 40.708 46.6504 41.148 47.0024 41.476C47.3544 41.796 47.7904 41.956 48.3104 41.956C49.0464 41.956 49.5664 41.648 49.8704 41.032H51.3464C51.1464 41.64 50.7824 42.14 50.2544 42.532C49.7344 42.916 49.0864 43.108 48.3104 43.108C47.6784 43.108 47.1104 42.968 46.6064 42.688C46.1104 42.4 45.7184 42 45.4304 41.488C45.1504 40.968 45.0104 40.368 45.0104 39.688C45.0104 39.008 45.1464 38.412 45.4184 37.9C45.6984 37.38 46.0864 36.98 46.5824 36.7C47.0864 36.42 47.6624 36.28 48.3104 36.28C48.9344 36.28 49.4904 36.416 49.9784 36.688C50.4664 36.96 50.8464 37.34 51.1184 37.828C51.3904 38.316 51.5264 38.876 51.5264 39.508ZM50.0984 39.172C50.0904 38.636 49.9104 38.212 49.5584 37.9C49.2144 37.588 48.7784 37.432 48.2504 37.432C47.7704 37.432 47.3584 37.588 47.0144 37.9C46.6784 38.212 46.4824 38.636 46.4264 39.172H50.0984ZM25.6217 56.812C25.6217 55.996 25.8097 55.264 26.1857 54.616C26.5697 53.968 27.0857 53.464 27.7337 53.104C28.3897 52.736 29.1057 52.552 29.8817 52.552C30.7697 52.552 31.5577 52.772 32.2457 53.212C32.9417 53.644 33.4457 54.26 33.7577 55.06H32.1137C31.8977 54.644 31.5977 54.332 31.2137 54.124C30.8297 53.908 30.3857 53.8 29.8817 53.8C29.3297 53.8 28.8377 53.924 28.4057 54.172C27.9737 54.42 27.6337 54.772 27.3857 55.228C27.1457 55.684 27.0257 56.212 27.0257 56.812C27.0257 57.412 27.1457 57.944 27.3857 58.408C27.6337 58.864 27.9737 59.216 28.4057 59.464C28.8377 59.712 29.3297 59.836 29.8817 59.836C30.6257 59.836 31.2297 59.628 31.6937 59.212C32.1657 58.788 32.4497 58.216 32.5457 57.496H29.4137V56.428H34.0097V57.496C33.9217 58.144 33.6897 58.74 33.3137 59.284C32.9457 59.828 32.4617 60.264 31.8617 60.592C31.2697 60.912 30.6097 61.072 29.8817 61.072C29.0977 61.072 28.3817 60.892 27.7337 60.532C27.0857 60.164 26.5697 59.656 26.1857 59.008C25.8097 58.36 25.6217 57.628 25.6217 56.812ZM41.347 54.388V61H39.979V60.22C39.763 60.492 39.479 60.708 39.127 60.868C38.783 61.02 38.415 61.096 38.023 61.096C37.503 61.096 37.035 60.988 36.619 60.772C36.211 60.556 35.887 60.236 35.647 59.812C35.415 59.388 35.299 58.876 35.299 58.276V54.388H36.655V58.072C36.655 58.664 36.803 59.12 37.099 59.44C37.395 59.752 37.799 59.908 38.311 59.908C38.823 59.908 39.227 59.752 39.523 59.44C39.827 59.12 39.979 58.664 39.979 58.072V54.388H41.347ZM44.52 52.12V61H43.152V52.12H44.52ZM52.376 57.508C52.376 57.74 52.36 57.956 52.328 58.156H47.264C47.304 58.708 47.5 59.148 47.852 59.476C48.204 59.796 48.64 59.956 49.16 59.956C49.896 59.956 50.416 59.648 50.72 59.032H52.196C51.996 59.64 51.632 60.14 51.104 60.532C50.584 60.916 49.936 61.108 49.16 61.108C48.528 61.108 47.96 60.968 47.456 60.688C46.96 60.4 46.568 60 46.28 59.488C46 58.968 45.86 58.368 45.86 57.688C45.86 57.008 45.996 56.412 46.268 55.9C46.548 55.38 46.936 54.98 47.432 54.7C47.936 54.42 48.512 54.28 49.16 54.28C49.784 54.28 50.34 54.416 50.828 54.688C51.316 54.96 51.696 55.34 51.968 55.828C52.24 56.316 52.376 56.876 52.376 57.508ZM50.948 57.172C50.94 56.636 50.76 56.212 50.408 55.9C50.064 55.588 49.628 55.432 49.1 55.432C48.62 55.432 48.208 55.588 47.864 55.9C47.528 56.212 47.332 56.636 47.276 57.172H50.948Z" fill="#02075D"/>
<line opacity="0.7" x1="9" y1="-4.37114e-08" x2="9" y2="95" stroke="#02075D" stroke-width="2" stroke-dasharray="4 4"/>
<path d="M47 74V95L68 74H47Z" fill="#02075D" fill-opacity="0.5"/>
</svg>
