<svg width="68" height="95" viewBox="0 0 68 95" fill="none" xmlns="http://www.w3.org/2000/svg">
<rect x="0.75" y="94.25" width="93.5" height="66.5" transform="rotate(-90 0.75 94.25)" stroke="#02075D" stroke-opacity="0.33" stroke-width="1.5" stroke-linejoin="round"/>
<path d="M27.2119 42.624C27.9199 41.46 29.1319 40.878 30.8479 40.878C32.5639 40.878 33.7699 41.46 34.4659 42.624C35.1739 43.788 35.5279 45.384 35.5279 47.412C35.5279 49.452 35.1739 51.054 34.4659 52.218C33.7699 53.382 32.5639 53.964 30.8479 53.964C29.1319 53.964 27.9199 53.382 27.2119 52.218C26.5159 51.054 26.1679 49.452 26.1679 47.412C26.1679 45.384 26.5159 43.788 27.2119 42.624ZM32.5579 43.38C32.1739 42.96 31.6039 42.75 30.8479 42.75C30.0919 42.75 29.5219 42.96 29.1379 43.38C28.7539 43.8 28.4959 44.34 28.3639 45C28.2439 45.66 28.1839 46.464 28.1839 47.412C28.1839 48.372 28.2439 49.182 28.3639 49.842C28.4959 50.502 28.7539 51.042 29.1379 51.462C29.5219 51.882 30.0919 52.092 30.8479 52.092C31.6039 52.092 32.1739 51.882 32.5579 51.462C32.9419 51.042 33.1939 50.502 33.3139 49.842C33.4459 49.182 33.5119 48.372 33.5119 47.412C33.5119 46.464 33.4459 45.66 33.3139 45C33.1939 44.34 32.9419 43.8 32.5579 43.38ZM37.4291 43.092V41.22H41.1731V54H39.1031V43.092H37.4291Z" fill="#02075D"/>
<line opacity="0.7" x1="6" y1="11" x2="6" y2="21" stroke="#02075D" stroke-width="2"/>
</svg>
