<svg width="180" height="115" viewBox="0 0 180 115" fill="none" xmlns="http://www.w3.org/2000/svg">
<line x1="0.55075" y1="36.6048" x2="152.551" y2="96.6048" stroke="#02075D" stroke-width="3"/>
<line x1="150.959" y1="96.9202" x2="178.959" y2="69.9202" stroke="#02075D" stroke-width="3"/>
<line x1="0.55075" y1="45.6048" x2="152.551" y2="105.605" stroke="#02075D" stroke-width="3"/>
<line x1="150.959" y1="105.92" x2="178.959" y2="78.9202" stroke="#02075D" stroke-width="3"/>
<line x1="0.55075" y1="53.6048" x2="152.551" y2="113.605" stroke="#02075D" stroke-width="3"/>
<line x1="150.959" y1="113.92" x2="178.959" y2="86.9202" stroke="#02075D" stroke-width="3"/>
<line x1="120.423" y1="50.0938" x2="135.423" y2="57.0938" stroke="#02075D" stroke-width="2"/>
<line x1="134.26" y1="57.3273" x2="144.26" y2="46.3273" stroke="#02075D" stroke-width="2"/>
<path d="M62.0001 20C61.5001 16.6667 59.4001 9.50001 55.0001 7.50001C49.5001 5.00001 41.5001 8.50001 34.5001 20C27.5001 31.5 14 84.5 44 71.5" stroke="#02075D" stroke-width="3"/>
<path d="M51.0001 15C50.5001 11.6667 48.4001 4.50001 44.0001 2.50001C38.5001 8.82149e-06 30.5001 3.50001 23.5001 15C16.5001 26.5 3.00002 79.5 33 66.5" stroke="#02075D" stroke-width="3"/>
<path d="M98.0001 35C97.5001 31.6667 95.4001 24.5 91.0001 22.5C85.5001 20 77.5001 23.5 70.5001 35C63.5001 46.5 50 99.5 80 86.5" stroke="#02075D" stroke-width="3"/>
<path d="M87.0001 30C86.5001 26.6667 84.4001 19.5 80.0001 17.5C74.5001 15 66.5001 18.5 59.5001 30C52.5001 41.5 39 94.5 69 81.5" stroke="#02075D" stroke-width="3"/>
<path d="M135 49C134.5 45.6667 132.4 38.5 128 36.5C122.5 34 114.5 37.5 107.5 49C100.5 60.5 87 113.5 117 100.5" stroke="#02075D" stroke-width="3"/>
<path d="M124 44C123.5 40.6667 121.4 33.5 117 31.5C111.5 29 103.5 32.5 96.5001 44C89.5001 55.5 76 108.5 106 95.5" stroke="#02075D" stroke-width="3"/>
</svg>
